<svg width="23" height="14" viewBox="0 0 23 14" fill="none" xmlns="http://www.w3.org/2000/svg">
<path fill-rule="evenodd" clip-rule="evenodd" d="M17.5 4.00001C16.9317 4.00001 17.7801 4.00001 17 4.00001C16 2 14 0 10.5 0C7 0 4.56176 2.12215 4 5.50001C1.78249 5.50001 0 7.74206 0 10C0.5 12.5 1 13.5 3.52173 14H17.6495C20.324 14 22.5 11.7835 22.5 9.05945C22.5 6.3354 20.1744 4.00001 17.5 4.00001ZM21.0998 8.86379C21.0998 10.869 19.4815 12.5 17.4916 12.5H4.33634C2.77226 12.5 1.4998 11.2181 1.4998 9.64235C1.4998 8.06616 2.77226 6.78392 4.33634 6.78392C4.44072 6.78392 4.55466 6.79226 4.69489 6.80934L5.15662 6.86733L5.20284 6.40337C5.48808 3.57156 7.8362 1.43607 10.6648 1.43607C12.979 1.43607 15.0558 2.91494 15.8331 5.11636L15.9801 5.53186L16.3988 5.398C16.7542 5.28519 17.1219 5.22798 17.4916 5.22798C19.4815 5.22798 21.0998 6.85899 21.0998 8.86379Z" fill="white"/>
</svg>
